<?xml version="1.0" standalone="no"?>
<!DOCTYPE svg PUBLIC "-//W3C//DTD SVG 20010904//EN"
 "http://www.w3.org/TR/2001/REC-SVG-20010904/DTD/svg10.dtd">
<svg version="1.0" xmlns="http://www.w3.org/2000/svg"
 width="512.000000pt" height="512.000000pt" viewBox="0 0 512.000000 512.000000"
 preserveAspectRatio="xMidYMid meet">

<g transform="translate(0.000000,512.000000) scale(0.100000,-0.100000)"
fill="#000000" stroke="none">
<path d="M2655 4674 c-16 -2 -75 -9 -130 -14 -122 -14 -316 -49 -331 -61 -6
-5 -13 -7 -16 -4 -3 3 -18 -1 -34 -10 -16 -8 -35 -15 -42 -15 -7 0 -70 -18
-140 -41 -124 -40 -154 -53 -372 -157 -130 -62 -299 -175 -524 -349 -64 -50
-286 -275 -334 -338 -20 -27 -50 -63 -65 -79 -15 -16 -33 -40 -40 -53 -7 -13
-43 -68 -80 -123 -110 -162 -217 -369 -277 -540 -19 -52 -39 -104 -46 -115
-24 -39 -82 -302 -111 -500 -23 -164 -24 -549 -1 -730 23 -174 93 -488 116
-519 5 -6 22 -49 38 -95 15 -46 30 -78 32 -72 2 7 -4 31 -13 54 -10 23 -26 69
-36 102 -10 33 -27 87 -39 120 -15 44 -70 288 -70 312 0 2 86 3 191 3 124 0
188 3 184 10 -3 5 -19 10 -36 10 -33 0 -69 31 -69 58 0 16 16 21 97 35 54 8
130 23 168 31 104 23 102 23 121 -39 10 -30 21 -52 25 -49 4 2 2 17 -6 32 -7
15 -15 39 -19 53 -5 24 -3 26 55 38 34 7 62 11 64 9 1 -2 25 -51 53 -110 28
-60 55 -108 61 -108 6 0 15 19 21 43 13 49 32 100 66 177 24 53 26 56 87 74
34 11 64 20 67 21 3 1 19 7 35 14 17 7 55 19 85 27 30 8 89 26 131 41 43 15
80 26 82 23 7 -7 27 -213 27 -277 0 -65 -22 -93 -75 -93 -19 0 -35 -4 -35 -10
0 -6 82 -10 225 -10 143 0 225 4 225 10 0 6 -17 10 -38 10 -48 0 -102 29 -124
66 -10 17 -23 84 -32 164 -9 74 -19 152 -22 173 -4 23 -2 37 5 37 6 0 34 11
63 24 29 13 89 38 133 56 44 17 87 38 95 45 12 10 140 70 218 102 9 4 12 -57
12 -284 0 -285 0 -291 -23 -324 -27 -40 -60 -59 -104 -59 -18 0 -33 -4 -33
-10 0 -6 84 -10 231 -10 151 0 228 3 224 10 -3 5 -20 10 -37 10 -38 0 -81 25
-102 60 -14 24 -16 67 -16 309 l0 281 191 0 191 0 29 -29 c21 -22 29 -39 29
-65 0 -20 5 -36 10 -36 6 0 10 62 10 165 0 103 -4 165 -10 165 -5 0 -10 -16
-10 -36 0 -26 -8 -43 -29 -65 l-29 -29 -191 0 c-183 0 -191 1 -191 20 0 14 19
29 73 55 39 20 92 52 117 71 24 19 51 33 59 32 8 -2 26 8 41 22 28 27 198 147
237 167 27 14 225 168 315 245 64 56 83 55 115 -5 16 -29 18 -80 21 -587 2
-305 0 -580 -3 -610 -6 -45 -13 -61 -45 -92 -29 -30 -45 -38 -73 -38 -20 0
-39 -4 -42 -10 -4 -7 73 -10 225 -10 213 0 283 9 179 23 -29 4 -52 15 -73 36
l-31 31 0 290 c0 160 3 290 8 290 4 0 192 0 417 0 l410 0 0 -270 c0 -301 -4
-324 -62 -360 -18 -11 -48 -20 -65 -20 -18 0 -33 -4 -33 -10 0 -6 82 -10 225
-10 143 0 225 4 225 10 0 6 -14 10 -31 10 -47 0 -94 34 -113 80 -14 35 -16
111 -16 609 0 313 3 583 6 601 4 18 22 48 41 66 27 27 42 34 73 34 29 0 40 4
40 15 0 13 -32 15 -225 15 -193 0 -225 -2 -225 -15 0 -11 11 -15 40 -15 32 0
48 -7 78 -34 l37 -34 3 -301 3 -301 -421 0 -421 0 3 300 3 300 32 32 c22 22
45 33 75 37 24 3 43 11 43 16 0 6 -63 12 -158 15 l-159 5 102 90 c161 143 448
449 584 623 27 34 55 62 63 62 8 0 13 6 11 13 -1 6 23 46 55 88 31 42 57 80
57 85 0 5 14 24 30 42 17 18 30 35 30 38 0 3 5 10 11 17 6 7 37 53 69 104 33
50 64 94 68 97 14 8 179 -116 310 -234 68 -60 79 -66 32 -17 -61 65 -203 187
-217 187 -5 0 -26 16 -47 35 -21 19 -40 35 -41 35 -2 0 -58 37 -126 82 -114
76 -202 123 -383 207 -68 32 -272 102 -426 146 -3 1 -12 5 -20 8 -25 10 -163
36 -282 53 -106 14 -525 27 -593 18z m482 -38 c10 -10 -169 -221 -186 -218 -9
1 -33 5 -53 9 -21 3 -38 10 -38 15 0 5 -6 8 -12 7 -7 -1 -20 1 -28 4 -47 19
-222 49 -359 62 l-73 7 47 48 c52 53 44 50 250 71 86 8 443 5 452 -5z m197
-22 c60 -8 116 -19 125 -24 9 -4 48 -15 86 -24 93 -21 218 -56 224 -62 3 -3
-1 -14 -8 -26 -7 -11 -22 -37 -33 -57 -11 -20 -31 -47 -44 -62 -13 -14 -24
-29 -24 -33 0 -14 -114 -165 -125 -166 -5 0 -91 40 -190 90 -99 49 -218 103
-264 120 -47 17 -87 32 -89 35 -6 5 29 52 115 157 56 67 68 77 91 73 15 -3 76
-12 136 -21z m-963 -58 l-32 -33 -132 -6 c-73 -4 -145 -9 -162 -12 -43 -8 158
49 230 65 33 7 65 17 70 21 16 11 50 15 54 6 2 -5 -11 -23 -28 -41z m1559
-108 c36 -17 99 -46 140 -65 112 -51 166 -81 260 -141 47 -30 87 -56 89 -58 8
-7 -52 -102 -196 -306 -18 -26 -33 -51 -33 -55 0 -8 -87 -103 -94 -103 -3 0
-26 21 -53 46 -60 58 -198 174 -238 200 -16 10 -43 31 -59 47 -17 15 -34 27
-38 27 -16 0 -148 92 -148 103 0 7 17 35 38 62 72 96 162 226 162 233 0 4 7
18 16 31 14 19 22 22 53 16 19 -4 65 -20 101 -37z m-1692 -20 c-118 -116 -162
-145 -193 -126 -34 20 -215 56 -305 61 -45 2 -44 2 45 30 50 16 99 31 110 33
11 3 29 9 40 14 36 16 189 38 273 39 l83 1 -53 -52z m385 37 c56 -8 111 -19
122 -24 11 -5 54 -16 95 -26 105 -25 104 -24 62 -73 -63 -73 -255 -266 -294
-295 l-36 -27 -109 66 c-162 100 -233 139 -285 159 -27 10 -48 20 -48 23 0 2
48 51 108 108 l107 103 88 1 c48 0 133 -7 190 -15z m444 -115 c51 -17 127 -47
170 -69 43 -21 122 -59 176 -85 66 -33 97 -53 97 -65 0 -42 -404 -476 -630
-675 -131 -116 -379 -310 -422 -330 -18 -9 -45 -27 -60 -41 -15 -14 -30 -25
-34 -25 -4 0 -22 -11 -40 -25 l-33 -25 -20 29 c-12 16 -24 38 -28 48 -5 11
-70 114 -146 230 -83 128 -135 216 -132 225 4 9 18 21 33 27 44 20 182 113
182 123 0 5 -15 -2 -32 -16 -39 -29 -185 -116 -196 -116 -4 0 -43 55 -87 122
-44 67 -101 154 -128 193 l-47 70 27 23 c16 12 76 55 136 95 59 39 107 75 107
79 0 4 19 20 43 35 23 15 54 37 70 50 l27 22 66 -25 c75 -28 133 -58 224 -115
36 -23 81 -49 100 -59 19 -10 44 -25 54 -33 19 -14 19 -15 -7 -41 -14 -14 -30
-26 -36 -26 -5 0 -21 -13 -34 -30 -14 -16 -29 -30 -34 -30 -4 0 -24 -14 -43
-31 -19 -17 -71 -58 -117 -92 -45 -33 -81 -63 -78 -65 5 -5 106 68 272 200
l112 88 88 -66 c48 -37 130 -103 181 -147 51 -43 95 -78 97 -75 5 5 -215 196
-298 258 -32 23 -56 48 -54 54 2 6 14 16 28 23 19 10 153 142 318 315 14 16
28 28 31 28 3 0 46 -14 97 -30z m-1199 -34 c56 -8 108 -18 115 -24 7 -5 25
-14 41 -19 l29 -9 -94 -74 c-51 -41 -137 -104 -189 -140 l-96 -66 -87 133
c-48 73 -87 136 -87 141 0 7 37 30 60 37 3 1 12 5 20 8 16 8 120 24 160 25 14
1 71 -5 128 -12z m-378 -130 c16 -25 30 -47 30 -51 0 -3 25 -42 55 -86 30 -44
55 -84 55 -89 0 -5 -17 -18 -37 -28 -56 -28 -136 -73 -153 -87 -23 -18 -231
-115 -247 -115 -11 0 11 129 33 194 45 131 168 306 216 306 9 0 31 -20 48 -44z
m2165 -136 c55 -39 133 -93 174 -122 80 -55 249 -202 258 -224 13 -34 -376
-466 -660 -735 -75 -71 -81 -74 -135 -79 -61 -5 -77 -23 -25 -28 l31 -3 -41
-38 c-65 -59 -281 -228 -318 -249 -19 -11 -83 -54 -143 -96 -60 -42 -110 -75
-112 -73 -9 8 -146 221 -161 250 -10 18 -27 42 -39 55 -18 19 -64 97 -64 108
0 9 463 3 481 -6 24 -13 49 -61 49 -95 0 -14 5 -25 10 -25 6 0 10 45 10 115 0
63 -1 115 -3 115 -1 0 -18 -5 -37 -12 -21 -6 -142 -14 -295 -17 l-260 -6 -37
55 c-21 30 -38 58 -38 61 0 4 16 14 36 24 60 28 485 347 514 385 3 3 30 27 60
52 50 41 173 154 210 194 8 8 46 48 85 87 77 80 157 171 259 295 37 45 73 82
79 82 7 -1 57 -32 112 -70z m-2423 -7 c-23 -46 -58 -184 -67 -268 -7 -58 -9
-62 -48 -84 -39 -23 -237 -94 -244 -88 -8 8 76 151 133 227 64 83 233 264 241
256 3 -2 -4 -21 -15 -43z m508 -240 c41 -63 99 -151 128 -195 29 -44 52 -81
50 -82 -2 -1 -39 -21 -83 -44 -135 -72 -357 -179 -408 -196 -27 -9 -82 -32
-123 -51 -41 -19 -80 -35 -87 -35 -19 0 -37 171 -37 338 0 142 3 153 50 167
38 11 261 124 288 146 14 10 30 19 36 20 6 0 27 11 46 24 19 13 42 24 50 24 8
0 49 -52 90 -116z m-795 12 c-29 -41 -66 -101 -81 -133 -15 -31 -30 -59 -34
-62 -4 -3 -12 -15 -18 -26 -7 -14 -29 -26 -59 -33 -26 -7 -53 -17 -60 -23 -21
-17 -15 6 9 38 58 77 278 314 291 314 4 0 -18 -34 -48 -75z m215 -287 c0 -73
7 -178 15 -233 8 -55 11 -103 7 -107 -7 -7 -235 -78 -251 -78 -5 0 -22 -5 -38
-12 -15 -7 -32 -13 -38 -13 -5 -1 -17 -5 -25 -8 -8 -4 -44 -13 -80 -21 -72
-17 -90 -10 -73 26 7 13 19 57 29 98 18 81 87 287 110 332 17 33 42 46 151 82
46 15 102 36 125 46 70 32 68 35 68 -112z m-380 -12 c0 -2 -9 -24 -19 -49 -10
-24 -31 -88 -47 -143 -15 -54 -31 -103 -35 -109 -4 -5 -15 -49 -24 -97 -20
-99 -1 -86 -166 -114 -165 -27 -161 -36 -60 151 67 125 164 284 197 324 4 4
124 38 142 40 6 1 12 -1 12 -3z m1247 -146 c49 -74 120 -182 158 -240 38 -58
72 -110 77 -116 9 -13 -153 -118 -266 -173 -38 -19 -90 -47 -115 -62 -72 -45
-214 -101 -222 -88 -4 6 -10 43 -13 83 -10 101 -17 136 -28 136 -5 0 -32 -48
-59 -107 -94 -206 -100 -215 -143 -230 -32 -11 -41 -11 -48 -1 -6 10 -8 9 -8
-3 0 -12 -25 -24 -87 -44 -49 -15 -94 -32 -100 -38 -7 -5 -13 -6 -13 -2 0 4
-6 3 -12 -2 -22 -17 -171 -57 -402 -108 -14 -3 -27 16 -67 100 -48 101 -49
106 -49 197 0 88 13 246 26 314 5 30 8 31 122 58 64 16 131 34 147 42 32 13
253 84 265 84 4 0 10 -20 13 -44 12 -83 69 -306 79 -306 11 0 0 62 -12 70 -4
3 -10 19 -13 35 -3 17 -15 79 -27 139 -12 60 -18 112 -13 116 4 4 31 15 58 25
28 10 73 28 100 40 28 12 100 44 160 70 61 26 155 74 210 105 139 80 179 99
186 92 3 -4 47 -68 96 -142z m-1402 -427 c-4 -38 -10 -114 -14 -170 -4 -57 -9
-105 -12 -108 -3 -2 -31 52 -64 120 -55 118 -84 154 -85 103 -1 -44 -66 -577
-71 -582 -7 -8 -230 -28 -236 -22 -12 12 56 327 81 376 7 14 18 45 26 70 19
68 72 213 82 226 5 6 39 15 76 18 37 4 94 13 127 21 103 23 99 25 90 -52z
m1688 -4 c15 -21 27 -43 27 -47 0 -4 -47 -7 -105 -7 -105 0 -144 -14 -68 -26
52 -7 80 -24 98 -59 12 -24 15 -82 15 -335 l0 -306 -77 -35 c-43 -20 -114 -54
-158 -75 -44 -22 -114 -54 -155 -70 -41 -17 -89 -37 -107 -44 -32 -14 -32 -14
-37 18 -9 52 -33 246 -61 482 -25 208 -25 220 -9 232 10 7 25 13 33 13 9 1 61
24 116 54 55 29 150 79 210 111 61 31 135 75 165 96 30 21 62 38 70 38 8 0 27
-18 43 -40z m218 -331 c56 -84 110 -164 120 -177 11 -13 19 -27 19 -31 0 -9
-152 -110 -166 -110 -5 0 -26 -11 -47 -25 l-37 -26 0 261 c0 143 2 260 4 260
3 0 51 -69 107 -152z m-971 -263 c12 -121 27 -278 34 -349 l12 -128 -40 -18
c-47 -20 -131 -46 -266 -84 -52 -15 -103 -32 -113 -37 -43 -24 -40 -16 158
421 59 129 126 276 148 327 23 51 42 91 44 90 1 -2 12 -102 23 -222z m-190 43
c-43 -95 -117 -258 -165 -363 -48 -104 -101 -223 -119 -262 -17 -40 -33 -73
-37 -73 -5 0 -47 86 -155 320 -34 74 -83 180 -108 234 -26 55 -43 102 -39 106
4 4 35 12 68 19 33 7 110 27 170 43 61 17 133 37 160 44 28 8 59 18 70 24 37
18 155 59 155 54 0 -3 10 2 22 10 12 9 30 16 39 16 13 0 0 -36 -61 -172z
m-825 53 c25 -51 45 -94 45 -97 0 -2 -11 -4 -25 -4 -14 0 -34 -5 -44 -12 -29
-18 -54 -3 -47 29 2 16 8 63 11 106 4 43 9 77 11 74 2 -2 24 -45 49 -96z m73
-158 c6 -16 13 -50 16 -78 12 -97 40 -235 48 -235 4 0 8 -12 8 -28 0 -15 18
-90 40 -166 22 -77 38 -141 36 -143 -1 -2 -61 -12 -132 -24 -71 -11 -137 -24
-146 -30 -10 -5 -31 -9 -48 -9 -25 0 -30 4 -30 23 1 51 59 689 64 694 8 8 68
21 102 22 26 1 34 -4 42 -26z m-242 -35 c-3 -18 -22 -172 -41 -343 -20 -170
-38 -319 -41 -331 -5 -18 -15 -22 -81 -28 -42 -3 -78 -4 -80 -2 -22 22 -27
474 -7 648 l7 57 56 6 c31 4 81 10 111 14 87 13 83 15 76 -21z m369 -238 c42
-91 95 -205 117 -253 27 -57 38 -91 31 -98 -5 -5 -33 -10 -62 -12 l-53 -2 -22
75 c-12 41 -32 125 -45 185 -13 61 -29 133 -36 160 -21 77 -28 132 -16 120 5
-6 44 -84 86 -175z m-486 -496 c-32 -39 -119 -60 -119 -29 0 8 -1 18 -2 23 -3
6 53 17 111 20 20 2 22 0 10 -14z"/>
<path d="M1286 2802 c-2 -4 -1 -14 5 -22 7 -12 9 -10 9 8 0 23 -5 28 -14 14z"/>
<path d="M1321 2694 c0 -11 3 -14 6 -6 3 7 2 16 -1 19 -3 4 -6 -2 -5 -13z"/>
<path d="M4850 3834 c0 -6 16 -25 35 -44 19 -19 35 -29 35 -24 0 6 -16 25 -35
44 -19 19 -35 29 -35 24z"/>
<path d="M4960 3710 c34 -42 43 -49 34 -25 -4 8 -9 15 -13 15 -4 0 -13 11 -19
25 -6 14 -17 25 -23 25 -6 0 4 -18 21 -40z"/>
<path d="M5040 3615 c0 -6 8 -18 19 -27 10 -8 21 -22 23 -29 3 -8 9 -10 14 -6
4 4 -6 22 -24 40 -18 17 -32 27 -32 22z"/>
<path d="M827 1493 c-3 -5 0 -19 8 -29 15 -20 18 -11 6 20 -4 11 -10 15 -14 9z"/>
<path d="M310 824 c0 -15 42 -116 46 -111 2 2 -7 30 -21 63 -13 32 -24 54 -25
48z"/>
<path d="M400 637 c0 -15 41 -89 47 -84 3 3 -7 25 -21 49 -14 24 -26 39 -26
35z"/>
</g>
</svg>
